<?xml version="1.0" encoding="UTF-8"?>
<svg version="1.1" xmlns="http://www.w3.org/2000/svg" width="192" height="192">
<path d="M0 0 C1.01468353 -0.0071553 2.02936707 -0.01431061 3.07479858 -0.02168274 C4.18235504 -0.02437164 5.2899115 -0.02706055 6.43103027 -0.02983093 C8.18789658 -0.03968773 8.18789658 -0.03968773 9.98025513 -0.04974365 C13.8616267 -0.06947422 17.7429847 -0.0811465 21.62438965 -0.09111023 C22.9651237 -0.09516042 24.30585755 -0.09927742 25.64659119 -0.10346031 C31.9513144 -0.12250749 38.25602598 -0.13673567 44.56077242 -0.14507228 C51.81329558 -0.15482267 59.06551175 -0.18108614 66.31792688 -0.22157317 C71.93853322 -0.2518615 77.55905224 -0.26655339 83.17973852 -0.26985329 C86.52928083 -0.27219072 89.87823607 -0.28298936 93.22773743 -0.30631447 C96.97543407 -0.33078413 100.72233993 -0.32972564 104.47009277 -0.32279968 C105.56145538 -0.33560974 106.65281799 -0.3484198 107.7772522 -0.36161804 C120.21751771 -0.27833669 130.98187033 3.6671531 140.12438965 12.14717102 C147.6789786 20.04002515 152.06240857 29.35879952 152.11531067 40.33724976 C152.12604362 41.87395828 152.12604362 41.87395828 152.13699341 43.44171143 C152.13968231 44.55502335 152.14237122 45.66833527 152.1451416 46.81538391 C152.1517128 47.99652771 152.158284 49.17767151 152.16505432 50.39460754 C152.18476163 54.3030076 152.19645266 58.21139417 152.2064209 62.11982727 C152.21047188 63.47077898 152.2145889 64.8217305 152.21877098 66.17268181 C152.2378096 72.52438799 152.25204094 78.87608267 152.26038295 85.22781187 C152.27013747 92.53239435 152.29641547 99.83667235 152.33688384 107.14114767 C152.36716923 112.80423664 152.38186368 118.46723897 152.38516396 124.13040727 C152.38750116 127.50445537 152.39628523 130.87817776 152.42162514 134.25213814 C152.44609081 138.02606744 152.44503717 141.79921133 152.43811035 145.57319641 C152.45732544 147.22190987 152.45732544 147.22190987 152.47692871 148.90393066 C152.38907812 162.11490076 148.1387578 171.62713715 139.12438965 181.08076477 C131.58659317 188.26329625 122.21060739 192.2525133 111.80256653 192.28761292 C110.78361801 192.29332306 109.76466949 192.2990332 108.71484375 192.30491638 C107.60774048 192.30603424 106.50063721 192.3071521 105.35998535 192.30830383 C104.18538254 192.31326874 103.01077972 192.31823364 101.80058289 192.323349 C98.58542813 192.3354328 95.37030968 192.34290955 92.15513635 192.34735966 C90.14239936 192.35029824 88.12966797 192.35440456 86.11693382 192.35886383 C79.80794309 192.37252863 73.49896527 192.38219961 67.18996078 192.38606572 C59.92899381 192.39054068 52.66821562 192.40806655 45.40730602 192.43706632 C39.78076465 192.45875131 34.15427612 192.46877366 28.52769345 192.47010684 C25.17385542 192.47115024 21.82033573 192.47842558 18.46651649 192.49492645 C14.71862256 192.51204843 10.97118417 192.51009121 7.2232666 192.50361633 C5.57779343 192.51743851 5.57779343 192.51743851 3.89907837 192.53153992 C-8.72046074 192.46350807 -19.40343761 188.55484088 -28.78186035 179.95967102 C-38.18899194 169.90760606 -40.33336633 158.47150924 -40.3223877 145.23017883 C-40.32910492 144.05835052 -40.33582214 142.88652222 -40.34274292 141.67918396 C-40.36168285 137.81951106 -40.3656452 133.96001245 -40.36779785 130.10029602 C-40.37064775 128.76326675 -40.37384023 127.42623816 -40.37736893 126.08921051 C-40.39583715 119.08572681 -40.40404374 112.08231889 -40.40246582 105.07881165 C-40.40126588 98.58039854 -40.42234713 92.08231833 -40.45395315 85.58398938 C-40.4802236 79.98027419 -40.49082861 74.376667 -40.489555 68.77289081 C-40.48904843 65.43684761 -40.49643973 62.10133488 -40.5159111 58.76531219 C-40.53563323 55.0371789 -40.52970747 51.3098899 -40.5177002 47.58174133 C-40.52893921 46.4966629 -40.54017822 45.41158447 -40.55175781 44.29362488 C-40.45045498 31.83799727 -36.45827988 21.19962347 -28.0670166 11.99092102 C-20.54132908 4.69658375 -10.55635117 0.05124094 0 0 Z " fill="#0063B5" transform="translate(40.0318603515625,-0.1471710205078125)"/>
<path d="M0 0 C0.93810013 -0.025746 1.87620026 -0.051492 2.84272766 -0.07801819 C7.120268 -0.16267051 11.3976533 -0.22799732 15.67578125 -0.27441406 C17.92899654 -0.30608087 20.18204454 -0.35386254 22.43457031 -0.41796875 C25.6929349 -0.50936045 28.94830989 -0.54804555 32.20776367 -0.57592773 C33.20902786 -0.61408096 34.21029205 -0.65223419 35.24189758 -0.69154358 C42.11805224 -0.67250598 42.11805224 -0.67250598 45.35191345 1.93411255 C47.12577617 3.96066599 48.69744089 6.04226489 50.25073242 8.24047852 C51.55421733 9.61210513 52.8716532 10.97094867 54.21557617 12.30297852 C54.86977539 12.95395508 55.52397461 13.60493164 56.19799805 14.27563477 C56.85477539 14.9240332 57.51155273 15.57243164 58.18823242 16.24047852 C58.87208008 16.91981445 59.55592773 17.59915039 60.26049805 18.29907227 C61.92160401 19.94856211 63.58501755 21.59564532 65.25073242 23.24047852 C64.90816406 23.85221924 64.5655957 24.46395996 64.21264648 25.09423828 C62.9871256 27.22887913 62.9871256 27.22887913 63.86010742 29.58032227 C64.23651367 30.43754883 64.61291992 31.29477539 65.00073242 32.17797852 C70.835903 47.08131958 71.08268677 64.05433627 66.25073242 79.24047852 C62.1354695 78.59874197 58.94684807 76.37061694 55.50073242 74.17797852 C54.89874023 73.80092773 54.29674805 73.42387695 53.67651367 73.03540039 C52.19824099 72.10854688 50.72407153 71.17515462 49.25073242 70.24047852 C49.25073242 70.90047852 49.25073242 71.56047852 49.25073242 72.24047852 C45.14789228 70.86314852 42.58230858 69.00404192 39.43823242 66.05297852 C38.56424805 65.24344727 37.69026367 64.43391602 36.78979492 63.59985352 C35.9519043 62.82125977 35.11401367 62.04266602 34.25073242 61.24047852 C32.9435635 60.0885672 31.63147501 58.94220051 30.31323242 57.80297852 C25.21695728 53.36597511 20.23911975 48.79788385 15.25073242 44.24047852 C19.21238094 50.34421242 23.3887841 56.20043145 27.87573242 61.92797852 C28.7794458 63.08656372 28.7794458 63.08656372 29.70141602 64.26855469 C34.54398419 70.43384376 39.57134324 76.41817215 44.72729492 82.32250977 C46.96909399 84.91480683 49.13077626 87.54823372 51.25073242 90.24047852 C46.29885079 88.61564236 42.43619471 85.75181516 38.25073242 82.74047852 C37.49671143 82.20221436 36.74269043 81.6639502 35.96582031 81.109375 C24.27423876 72.71932469 13.08955511 63.73541376 1.95385742 54.62817383 C-0.26862048 52.8173131 -2.50647304 51.02608802 -4.74926758 49.24047852 C1.11586304 56.80729114 7.04537189 64.29297873 13.27685547 71.5625 C16.06004325 74.81242439 18.73453261 78.12294875 21.37573242 81.49047852 C26.33920399 87.63789743 31.99336923 93.0872706 37.66333008 98.5793457 C38.74493408 99.63557129 38.74493408 99.63557129 39.84838867 100.71313477 C40.50331299 101.34485596 41.1582373 101.97657715 41.83300781 102.62744141 C43.25073242 104.24047852 43.25073242 104.24047852 43.25073242 106.24047852 C24.17153717 114.00789793 5.77404664 116.00863041 -13.7644043 108.4621582 C-17.50781183 106.88154586 -21.14769699 105.11955882 -24.74926758 103.24047852 C-25.07926758 104.23047852 -25.40926758 105.22047852 -25.74926758 106.24047852 C-32.18071524 101.86593061 -38.48650857 97.05025649 -40.54089355 89.22521973 C-41.48167747 81.99430144 -41.30877411 74.76317135 -41.02514648 67.49047852 C-40.87429706 63.61623572 -40.82025702 59.75014764 -40.78442383 55.87329102 C-40.7392324 53.37839183 -40.68863373 50.8835835 -40.63208008 48.38891602 C-40.60880646 47.24796478 -40.58553284 46.10701355 -40.56155396 44.93148804 C-39.9959774 31.13291757 -35.59022005 19.65006355 -25.62426758 9.99047852 C-18.55471423 3.97715725 -9.2972654 0.24758642 0 0 Z " fill="#00D5F9" transform="translate(39.749267578125,-0.240478515625)"/>
<path d="M0 0 C18.63912533 8.82689856 34.16498746 28.74232928 41.3125 47.75 C41.91585062 49.48633933 42.47499949 51.2383869 43 53 C43.3609375 54.18980469 43.721875 55.37960938 44.09375 56.60546875 C45.38586043 61.89211026 45.25388863 67.15007957 45.1875 72.5625 C45.1865332 74.06586914 45.1865332 74.06586914 45.18554688 75.59960938 C45.16046952 79.83210917 45.04139983 83.75992857 44.3203125 87.94140625 C43.94001442 91.57278918 44.4619963 92.56213577 46.6875 95.375 C52.61049923 103.43303383 55.18485669 110.79204788 55.0625 120.75 C55.05798828 121.44738281 55.05347656 122.14476562 55.04882812 122.86328125 C55.0371002 124.57555803 55.01916653 126.28779033 55 128 C54.34 128.33 53.68 128.66 53 129 C52.63648438 128.45730469 52.27296875 127.91460937 51.8984375 127.35546875 C51.39570313 126.64003906 50.89296875 125.92460937 50.375 125.1875 C49.88773438 124.47980469 49.40046875 123.77210938 48.8984375 123.04296875 C45.75425017 119.65940913 42.42835082 118.24950938 37.9140625 117.4609375 C28.76582437 117.2219099 22.33438354 119.49941922 14.30078125 123.46875 C11 125 11 125 8 125 C8 125.66 8 126.32 8 127 C-17.46758423 131.73815521 -39.87612353 126.83712892 -61.37451172 112.53393555 C-72.92140256 104.60609482 -81.50913206 95.85368113 -89 84 C-85.26840423 85.36668858 -82.15263694 87.10999885 -78.8125 89.25 C-62.47959827 98.960357 -42.04250838 103.1820278 -23.375 98.75 C-18.38500488 97.28111411 -13.65434916 95.31542117 -9 93 C-11.97701384 89.97960527 -15.00197074 87.0556952 -18.14746094 84.20874023 C-30.02281448 73.44222994 -41.98321604 62.35457829 -51.8671875 49.69921875 C-54.47759096 46.39557627 -57.23604704 43.23764795 -60 40.0625 C-65.31479078 33.92536337 -70.23365292 27.57178158 -75 21 C-70.91341664 21 -70.09983094 22.50496058 -67.1875 25.3125 C-52.83778701 38.78567405 -36.24265668 51.5122065 -19 61 C-19.40089844 60.62230469 -19.80179687 60.24460938 -20.21484375 59.85546875 C-25.62822785 54.61393811 -30.31554216 48.89286894 -35 43 C-35.43892578 42.44860352 -35.87785156 41.89720703 -36.33007812 41.32910156 C-42.69369256 33.32253404 -48.90695259 25.21433058 -55 17 C-54.67 16.34 -54.34 15.68 -54 15 C-53.54262451 15.43755615 -53.08524902 15.8751123 -52.61401367 16.32592773 C-43.98629913 24.56181783 -35.37264513 32.61509281 -26 40 C-24.86311575 40.92658766 -23.72779757 41.85509894 -22.59375 42.78515625 C-15.89058492 48.25836641 -9.06400643 53.49922766 -2 58.5 C-0.95948486 59.23827026 -0.95948486 59.23827026 0.10205078 59.99145508 C4.28216066 62.9149087 8.53415264 65.5344801 13 68 C18.81742691 43.70270313 13.63904727 23.08876045 1.25390625 2.03125 C0.63322266 1.02578125 0.63322266 1.02578125 0 0 Z " fill="#000103" transform="translate(109,28)"/>
<path d="M0 0 C0.63292969 0.63550781 1.26585937 1.27101563 1.91796875 1.92578125 C4.40684041 4.41640873 6.91556844 6.88636378 9.42578125 9.35546875 C11.05480558 10.96602641 12.68370884 12.57670653 14.3125 14.1875 C15.14845703 15.00669922 15.98441406 15.82589844 16.84570312 16.66992188 C17.63525391 17.45302734 18.42480469 18.23613281 19.23828125 19.04296875 C19.96055908 19.75477295 20.68283691 20.46657715 21.42700195 21.19995117 C23 23 23 23 23 25 C3.92080475 32.76741941 -14.47668579 34.76815189 -34.01513672 27.22167969 C-37.75854425 25.64106734 -41.39842941 23.87908031 -45 22 C-45.33 22.99 -45.66 23.98 -46 25 C-48.36216967 22.84200723 -50.68353529 20.64440219 -53 18.4375 C-54.00160156 17.52387695 -54.00160156 17.52387695 -55.0234375 16.59179688 C-59.90208104 11.88739061 -59.90208104 11.88739061 -60.4375 7.03515625 C-60.293125 6.03355469 -60.14875 5.03195313 -60 4 C-54.91577131 3.67547476 -51.24340141 4.38447041 -46.50390625 6.24609375 C-35.10621173 9.67784889 -19.89843759 9.80050227 -9 5 C-7.31723262 4.42349636 -5.62964148 3.86087918 -3.9375 3.3125 C-3.18339844 3.06113281 -2.42929687 2.80976562 -1.65234375 2.55078125 C-0.83443359 2.27814453 -0.83443359 2.27814453 0 2 C0 1.34 0 0.68 0 0 Z " fill="#03A4FD" transform="translate(60,81)"/>
<path d="M0 0 C4.28944385 1.40381799 8.51891301 2.93009442 12.75 4.5 C31.27992353 11.06389141 47.81811507 9.9883784 66 3 C66.99 2.67 67.98 2.34 69 2 C70.89716645 3.72772256 72.79275305 5.45712734 74.6875 7.1875 C75.21794922 7.67025391 75.74839844 8.15300781 76.29492188 8.65039062 C79.61727252 11.687386 82.84058321 14.7936902 86 18 C70.72754717 26.54851895 54.0415001 28.60083062 37.0625 24.3125 C23.36917211 20.10595674 10.2640105 14.2640105 0 4 C0 2.68 0 1.36 0 0 Z " fill="#0E56DC" transform="translate(15,103)"/>
<path d="M0 0 C2.49361571 1.20381448 4.68143083 2.45428722 7 4 C7 4.66 7 5.32 7 6 C8.19921141 8.10680317 9.43042012 10.17829652 10.6875 12.25 C17.73827482 24.18304189 21.18320308 35.81473581 21.25 49.625 C21.270625 50.66785156 21.29125 51.71070313 21.3125 52.78515625 C21.34701575 59.69693459 20.39680369 65.51272366 18 72 C9.10025703 68.77545545 1.46639497 62.46260094 -6 56.75 C-6.53947266 56.33814453 -7.07894531 55.92628906 -7.63476562 55.50195312 C-10.63163031 53.17608456 -13.38139362 50.74450092 -16 48 C-15.67 47.34 -15.34 46.68 -15 46 C-11.42597488 47.30710813 -8.49002567 48.88412294 -5.375 51.0625 C-2.82843844 52.83987829 -0.96802184 54.01065939 2 55 C5.83665496 36.91291234 4.48364037 19.28970765 -2 2 C-1.34 1.34 -0.68 0.68 0 0 Z " fill="#0D59DE" transform="translate(104,24)"/>
<path d="M0 0 C4.10958767 1.45044271 7.43258745 3.51110752 11 6 C10.67 6.66 10.34 7.32 10 8 C7.33644766 8.39169887 5.60775627 8.40564529 3.33203125 6.88671875 C1.8489112 5.63610683 0.42045648 4.32135486 -1 3 C-0.67 2.01 -0.34 1.02 0 0 Z " fill="#0973EC" transform="translate(89,70)"/>
<path d="M0 0 C3.21524305 1.40844718 5.32183868 3.10344786 7.75 5.625 C8.67039062 6.57246094 8.67039062 6.57246094 9.609375 7.5390625 C10.29773438 8.26222656 10.29773438 8.26222656 11 9 C9.68 10.32 8.36 11.64 7 13 C6.0204042 11.20856793 5.0413367 9.41684696 4.0625 7.625 C3.51722656 6.62726562 2.97195312 5.62953125 2.41015625 4.6015625 C1.5850241 3.07929654 0.77435609 1.54871217 0 0 Z " fill="#04A7FC" transform="translate(94,14)"/>
</svg>
